# xmcd
#
# Track frame offsets:
#	150
#	11308
#	23387
#	38001
#	53812
#	71770
#	90479
#	99797
#	114076
#	128161
#	137564
#	153236
#	171138
#	191575
#	192397
#	203277
#	227058
#	243957
#	257568
#	259142
#	275790
#	286950
#	295879
#	304837
#	323129
#	336601
#	342187
#	355630
#
# Disc length: 4778 seconds
#
# Revision: 0
# Processed by: cddbd v1.5.1PL2 Copyright (c) Steve Scherf et al.
# Submitted via: EasyCDDAExtractor 8.1.2.3
#
DISCID=8312a81c
DTITLE=Various Artist - Rimes et gloires
DYEAR=2002
DGENRE=Rap
TTITLE0=Alpha 5.20 - Intro
TTITLE1=Fredo and k.Fear (la brigade) fe - Freestyle
TTITLE2=Feross and fresh - Freestyle
TTITLE3=Eloquence feat.13,dayen and apot - Fuck dat freestyle
TTITLE4=Booba - Inédit
TTITLE5=Rohff - Sensation brave
TTITLE6=Alpha 5.20 - Interlude dakar (alpha ville)
TTITLE7=Alpha 5.20 feat.Acid (la briga - Rimes and gloire
TTITLE8=La caution - La caution - armée de 12
TTITLE9=Iron sy - Du bon je te donne
TTITLE10=Sadik asken feat.Toubab and mike - Sadik asken feat.Toubab and mike
TTITLE11=Lunatic and dicidens - Inédit
TTITLE12=Booba feat.Malekal morte - Mon groupe assassine
TTITLE13=14 - Interlude
TTITLE14=Ol'kainry - Rimes and gloire
TTITLE15=Arsenik - Ghetto blaster
TTITLE16=Alpha 5.20 feat.K.Fear (la bri - Reunoi quoi freestyle
TTITLE17=Mass and endo - Rien que du flow
TTITLE18=Rost - Interlude
TTITLE19=S.Kiv feat.L's.Kadrille and kohn - Les derniers
TTITLE20=Lady laistee feat.Naya.H and gra - Freestyle
TTITLE21=Layonne - La philosophie
TTITLE22=Jaeyez - Le purgatoire
TTITLE23=Triptik feat.Jewel,kroniker and - Freestyle
TTITLE24=Chaos diplomatik - T'ébriffer
TTITLE25=Bonus track - Monseigneur mike freestyle
TTITLE26=Bonus track - Freestyle
TTITLE27=Alpha 5.20 - Outro
EXTD=
EXTT0=
EXTT1=
EXTT2=
EXTT3=
EXTT4=
EXTT5=
EXTT6=
EXTT7=
EXTT8=
EXTT9=
EXTT10=
EXTT11=
EXTT12=
EXTT13=
EXTT14=
EXTT15=
EXTT16=
EXTT17=
EXTT18=
EXTT19=
EXTT20=
EXTT21=
EXTT22=
EXTT23=
EXTT24=
EXTT25=
EXTT26=
EXTT27=
PLAYORDER=
